<svg id="katman_1" data-name="katman 1" xmlns="http://www.w3.org/2000/svg" viewBox="0 0 2723 600"><defs><style>.cls-1{opacity:0;}.cls-2{fill:#fff;}.cls-3{fill:none;stroke:#707070;}.cls-4,.cls-6{isolation:isolate;}.cls-5{fill:#6020ff;}.cls-6{opacity:0.7;}</style></defs><g id="logo"><g id="_--placeholder-logo--" data-name=" --placeholder-logo--" class="cls-1"><rect class="cls-2" width="2723" height="600"/><rect class="cls-3" x="0.5" y="0.5" width="2722" height="599"/></g><g id="employee-management-system"><g id="Fin" class="cls-4"><g class="cls-4"><path class="cls-5" d="M1016.34,182.77H869.06v67.1h136.73v57.39H869.06V425H800.7V125.38h215.64Z" transform="translate(0 0)"/><path class="cls-5" d="M1116.35,178.13h-63.3V125.38h63.3Zm0,246.87h-63.3V205.56h63.3Z" transform="translate(0 0)"/><path class="cls-5" d="M1362.38,425h-63.3V292.49c0-25.32-13.08-39.66-36.72-39.66s-38.82,15.61-38.82,40.93V425h-63.3V205.56h58.66v23.63c13.5-19,36.29-31.22,65-31.22,49.38,0,78.5,30,78.5,76.8Z" transform="translate(0 0)"/></g></g><g id="as" class="cls-4"><g class="cls-6"><path class="cls-5" d="M1600.33,425h-57V403.06c-14.35,19.83-37.56,29.54-69.63,29.54-45.57,0-78.07-21.53-78.07-63.73,0-46,34.18-67.52,94.53-77.22l50.22-8.44v-2.53c0-19.84-13.51-30.81-36.72-30.81a69.46,69.46,0,0,0-25.32,4.64c-14.77,5.49-23.21,13.08-41.77,30.39l-40.09-36.29c30-33.76,63.72-50.64,106.34-50.64,63.72,0,97.48,31.22,97.48,80.6Zm-59.92-97.9-36.29,6.75c-32.5,6.33-47.69,14.77-47.69,30,0,11.82,11,19.41,30.81,19.41,28.69,0,53.17-14.35,53.17-47.68Z" transform="translate(0 0)"/><path class="cls-5" d="M1795.29,273.92c-24-19-42.2-24.89-65.41-24.89-19.83,0-32.07,6.75-32.07,17.3-1.69,11.81,13.92,13.92,47.68,21.52,62.46,13.93,85.67,29.54,85.67,70.9,0,42.2-35.45,73.42-96.64,73.42-41.78,0-73.85-11.39-108.87-42.2l35.87-40.08c15.61,12.23,28.69,20.67,39.24,24.89s22.79,6.33,35.87,6.33c19,0,32.92-7.17,32.92-19s-9.71-15.19-38-20.68l-13.08-2.95c-62-14.35-81-30.81-81-67.1,0-40.09,35.45-73.42,94.11-73.42,38.4,0,66.25,9.7,97.06,35.44Z" transform="translate(0 0)"/></g></g><g id="tech" class="cls-4"><g class="cls-4"><path class="cls-5" d="M2000.52,422.47c-18.15,5.48-34.61,8-50.22,8-47.26,0-65.83-19.42-65.83-63.72V252.83h-38.4V205.56h38.4V141.42h63.3v64.14h49.37v47.27h-49.37V355.37c0,15.19,7.17,19.83,20.68,19.83,6.33,0,14.34-1.26,24.89-3.37Z" transform="translate(0 0)"/><path class="cls-5" d="M2233.46,390.4c-31.65,30.38-62,41.77-99.17,41.77-72.16,0-117.74-46-117.74-116,0-67.52,41.78-118.16,112.68-118.16,67.52,0,104.23,41.77,104.23,111.4,0,9.71-.42,17.73-.84,24.06H2077.74c6.33,28.27,26.17,45.15,58.24,45.15,23.63,0,38.82-7.6,62.88-27.85Zm-60.34-101.28c-3-26.59-18.15-41.78-45.16-41.78-26.58,0-42.62,16.46-48.95,41.78Z" transform="translate(0 0)"/><path class="cls-5" d="M2323.77,314.86c0,37.13,19.41,63.3,51.48,63.3,20.25,0,34.6-9.29,57-32.92l42.2,35c-30.81,38.4-61.19,51.9-100.44,51.9-67.1,0-114.36-44.73-114.36-117.31S2307.73,198,2375.25,198c35.87,0,64.14,11,94.1,40.93L2431,278.57c-23.63-20.68-38.4-27-54.86-27C2343.6,251.56,2323.77,277.72,2323.77,314.86Z" transform="translate(0 0)"/><path class="cls-5" d="M2701,425h-63.3V293.34c0-25.75-13.08-40.51-36.71-40.51-23.21,0-38.83,16.45-38.83,41.77V425h-63.3V125.38h63.3v98.33c15.2-17.3,35.45-25.74,60.35-25.74,49.37,0,78.49,30,78.49,76.8Z" transform="translate(0 0)"/></g></g></g><path id="icon" class="cls-5" d="M175,600V175H0V0H350V600ZM425,425V250H600V425Zm0-250V0H600V175Z" transform="translate(0 0)"/></g></svg>